<?xml version="1.0" encoding="utf-8"?>
<!-- Generator: Adobe Illustrator 24.3.0, SVG Export Plug-In . SVG Version: 6.00 Build 0)  -->
<svg version="1.1" id="Layer_1" xmlns="http://www.w3.org/2000/svg" xmlns:xlink="http://www.w3.org/1999/xlink" x="0px" y="0px"
	 viewBox="0 0 75 75" style="enable-background:new 0 0 75 75;" xml:space="preserve">
<style type="text/css">
	.st0{fill:#F7921A;}
</style>
<g>
	<path class="st0" d="M52.1,38.8c-0.7-0.7-1.4-1.3-2.1-1.9c6.3-6.2,6.9-15.5,3.2-22c-2.5-4.5-8-8.3-12.7-9.3l7.2,4.1l-8.6,5
		c0.5,0.2,1,0.4,1.5,0.6c3.9,2.1,5.8,6.6,4.6,11c-0.9,3.6-3.1,6.1-6.9,6.8c-1.7,0.3-3.4,0.2-5.1,0.2c-1.3,0-2.5,0-3.9,0
		c0,3,0,5.8,0,8.8c0.5,0,0.9,0.1,1.4,0.1c2.6,0,5.2,0,7.8,0c1.2,0,2.4,0.2,3.5,0.8c3.7,1.8,5.3,4.9,5.4,8.9c0,3.3-1.8,7.3-5.7,8.8
		v-2.6l-12.4,7.2l12.4,7.2V70c8.7-1.5,15.2-8.4,15.7-17.1C57.7,47.4,56,42.7,52.1,38.8z"/>
	<path class="st0" d="M27.6,51.8c0-12.3,0-24.6,0-36.9c0-0.2,0-0.4,0-0.7c0.2,0,0.5,0,0.7,0c0.8,0,1.7,0,2.5,0v2.6l12.4-7.2
		L30.8,2.5v2.8c-4.4,0-8.8,0-13.2,0v8.9l0,0c0,0.3,0,0.5,0,0.8c0,12.3,0,24.5,0,36.8c0,1.1,0.1,2.2,0.3,3.3
		c1.3,6.4,4.9,10.9,10.9,13.5c1.4,0.6,2.8,1.1,4.2,1.3l-8-4.7l8.1-4.7C29.7,59.1,27.6,55.7,27.6,51.8z"/>
</g>
</svg>
